<?xml version="1.0" standalone="no"?>
<!DOCTYPE svg PUBLIC "-//W3C//DTD SVG 20010904//EN"
 "http://www.w3.org/TR/2001/REC-SVG-20010904/DTD/svg10.dtd">
<svg version="1.0" xmlns="http://www.w3.org/2000/svg"
 width="600.000000pt" height="600.000000pt" viewBox="0 0 600.000000 600.000000"
 preserveAspectRatio="xMidYMid meet">

<g transform="translate(0.000000,600.000000) scale(0.100000,-0.100000)"
fill="#000000" stroke="none">
<path d="M2705 4891 c-49 -9 -81 -25 -118 -60 -45 -41 -58 -85 -64 -220 -5
-106 -9 -127 -27 -147 -21 -24 -254 -124 -289 -124 -30 0 -58 19 -132 90 -83
79 -138 110 -198 110 -79 0 -129 -36 -313 -222 -187 -190 -211 -226 -197 -312
9 -62 28 -93 114 -182 71 -74 79 -86 79 -122 0 -36 -46 -162 -89 -242 -33 -61
-53 -69 -181 -74 -64 -3 -128 -10 -143 -15 -49 -19 -95 -61 -117 -106 -20 -42
-21 -56 -18 -317 l3 -273 29 -42 c18 -27 46 -51 79 -68 45 -22 63 -25 161 -25
129 0 161 -13 188 -76 75 -175 88 -212 88 -246 0 -36 -8 -48 -79 -122 -115
-120 -136 -175 -105 -269 15 -45 40 -75 192 -229 196 -198 236 -225 323 -215
67 8 102 29 190 113 109 103 104 103 298 22 136 -56 139 -62 146 -206 6 -136
10 -157 41 -199 37 -49 78 -73 145 -85 77 -13 130 0 147 37 16 35 15 42 -8 65
-15 15 -33 20 -69 20 -61 0 -96 13 -111 39 -6 11 -12 74 -14 139 -6 179 -41
234 -186 291 -41 16 -107 43 -147 60 -129 55 -195 38 -322 -83 -81 -77 -112
-93 -153 -80 -12 4 -96 79 -185 167 -161 159 -163 161 -163 205 0 41 5 49 79
126 95 99 113 132 114 206 0 45 -8 74 -40 146 -23 49 -49 112 -59 139 -39 112
-114 156 -274 162 -192 7 -182 -11 -181 299 1 298 -10 280 166 287 184 7 239
42 293 187 11 30 37 93 57 139 32 73 37 92 32 137 -7 70 -23 96 -111 185 -77
79 -93 109 -81 157 8 31 312 338 350 352 39 15 71 -2 157 -81 46 -42 98 -83
115 -93 56 -28 132 -21 236 22 51 22 108 45 127 52 65 25 109 59 137 107 25
44 28 58 33 179 3 90 9 136 19 147 24 29 81 36 291 34 288 -3 301 -12 245
-173 -19 -55 -23 -79 -16 -97 12 -32 43 -42 77 -25 34 17 93 153 94 216 0 73
-44 138 -120 178 -31 16 -65 18 -265 20 -126 1 -248 -1 -270 -5z"/>
<path d="M4555 4890 c-45 -7 -89 -28 -148 -71 l-40 -29 -240 0 c-156 0 -254
-4 -281 -12 -33 -9 -76 -46 -215 -182 -108 -107 -180 -186 -192 -211 -15 -33
-19 -65 -19 -181 0 -134 -1 -143 -25 -175 -55 -74 -79 -140 -85 -229 l-5 -85
-98 -128 -98 -127 -112 6 c-93 5 -124 2 -185 -14 -168 -46 -297 -170 -359
-349 -24 -71 -22 -221 6 -297 40 -112 97 -190 186 -256 104 -76 252 -113 376
-93 31 5 65 6 76 2 11 -4 44 -40 74 -81 29 -40 73 -97 96 -126 42 -52 43 -56
43 -127 0 -83 17 -132 74 -215 l36 -52 0 -147 c0 -145 0 -148 29 -192 37 -57
339 -355 377 -371 20 -8 110 -13 287 -15 l258 -2 37 -29 c62 -47 85 -59 139
-70 120 -26 252 37 307 147 7 14 19 50 26 79 26 112 -40 246 -146 298 -113 55
-215 43 -323 -40 l-54 -41 -146 -3 c-80 -2 -170 -1 -200 3 -52 7 -58 11 -152
105 l-99 97 0 92 c0 90 1 92 33 128 l34 36 169 -1 c93 0 214 -1 270 -1 l101
-1 56 -44 c96 -75 205 -85 316 -29 67 34 113 94 136 177 15 51 15 68 5 118
-16 73 -56 138 -111 178 -44 32 -124 60 -169 60 -47 0 -124 -32 -184 -76 l-60
-44 -253 0 c-264 0 -288 3 -323 45 -20 24 -82 54 -140 66 -49 10 -52 13 -145
135 -52 69 -100 134 -105 145 -14 24 18 102 48 118 30 16 905 15 935 -1 12 -6
38 -23 57 -38 84 -65 190 -78 287 -34 67 29 94 53 127 108 38 66 51 132 37
195 -30 141 -137 231 -274 231 -78 0 -115 -13 -194 -70 l-56 -40 -164 0 c-150
0 -165 -2 -183 -20 -24 -24 -25 -38 -4 -68 14 -21 22 -22 144 -22 70 0 135 -3
144 -6 8 -3 18 -21 22 -40 12 -66 26 -64 -427 -64 -448 0 -446 0 -433 58 11
48 27 52 183 52 80 0 151 4 157 8 38 25 32 85 -10 96 -11 3 -93 6 -182 6 -179
0 -178 0 -208 71 -19 45 -17 47 102 206 89 119 92 121 142 132 63 14 94 29
149 75 l43 36 269 0 269 0 38 -35 c77 -69 184 -93 281 -64 94 28 169 113 190
216 11 52 11 68 -4 118 -29 100 -82 160 -177 200 -85 35 -213 9 -288 -59 l-40
-36 -271 0 -271 0 -34 34 c-33 33 -34 36 -34 115 0 51 5 92 14 109 8 15 52 64
99 109 61 59 94 83 118 87 19 4 111 5 205 4 l171 -3 37 -32 c64 -57 113 -77
191 -77 97 -1 152 22 213 89 65 71 91 155 72 237 -36 157 -174 254 -325 228z
m127 -137 c45 -22 78 -80 78 -136 0 -80 -43 -136 -120 -157 -53 -14 -94 -3
-142 40 -40 35 -42 40 -45 101 -3 51 0 70 16 96 46 74 133 97 213 56z m-371
-107 c8 -16 8 -34 2 -53 l-10 -28 -189 -5 c-116 -3 -197 -9 -209 -17 -11 -6
-73 -65 -137 -131 l-118 -120 0 -74 c0 -87 -16 -118 -60 -118 -47 0 -60 30
-56 130 2 47 4 91 5 99 1 18 275 296 316 322 27 17 52 19 238 19 l207 0 11
-24z m-645 -685 c57 -26 84 -73 84 -145 0 -50 -4 -60 -36 -95 -41 -47 -90 -66
-142 -56 -83 16 -132 71 -132 151 0 64 26 113 76 141 47 28 96 29 150 4z
m1011 1 c55 -29 83 -77 83 -144 0 -50 -4 -62 -32 -94 -60 -68 -136 -82 -205
-38 -54 36 -73 70 -73 136 0 63 22 102 77 135 45 27 104 29 150 5z m-379 -98
c26 -17 30 -65 6 -88 -13 -13 -46 -16 -200 -16 -109 0 -193 4 -205 10 -13 7
-19 21 -19 43 0 63 4 64 230 65 128 0 170 -3 188 -14z m-871 -276 c13 -12 23
-29 23 -39 0 -24 -131 -193 -154 -197 -21 -5 -66 35 -66 58 0 10 16 39 37 66
108 145 118 152 160 112z m-376 -254 c152 -45 259 -169 278 -323 24 -190 -71
-343 -255 -412 -84 -32 -217 -24 -299 16 -247 123 -290 462 -82 641 100 85
235 114 358 78z m1635 -233 c17 -10 41 -35 54 -56 31 -50 26 -142 -11 -181
-37 -40 -104 -67 -148 -59 -80 14 -131 73 -133 154 -2 92 64 161 157 161 31 0
62 -7 81 -19z m-1307 -623 c39 -51 71 -100 71 -109 0 -19 -45 -59 -66 -59 -14
0 -111 116 -146 175 l-21 37 29 24 c16 13 37 23 46 24 10 0 47 -39 87 -92z
m291 -233 c93 -48 113 -177 37 -253 -61 -61 -164 -60 -226 3 -30 30 -35 42
-39 95 -4 54 -1 65 24 101 15 22 39 47 53 54 34 19 115 19 151 0z m1010 0 c47
-24 80 -82 80 -138 0 -59 -19 -98 -65 -133 -47 -36 -130 -37 -179 -3 -85 58
-92 185 -14 255 12 12 30 24 38 27 31 11 112 6 140 -8z m-379 -95 c13 -7 19
-21 19 -45 0 -58 -12 -61 -236 -55 l-199 5 -3 40 c-5 62 4 65 216 65 107 0
191 -4 203 -10z m-667 -352 c11 -15 16 -46 16 -96 l0 -74 118 -120 c64 -66
129 -126 144 -134 20 -10 71 -14 202 -14 191 0 206 -4 206 -59 0 -49 -8 -51
-238 -51 l-213 0 -156 153 c-85 83 -160 161 -166 172 -14 27 -18 192 -4 222
14 32 69 32 91 1z m1057 -355 c46 -27 69 -72 69 -134 0 -90 -55 -149 -146
-157 -42 -3 -60 0 -88 17 -143 89 -78 313 87 297 26 -3 61 -13 78 -23z"/>
<path d="M3106 4317 c-13 -13 -34 -52 -46 -86 -13 -34 -30 -66 -39 -70 -9 -5
-72 -11 -141 -14 -431 -18 -811 -271 -1013 -672 -136 -271 -153 -637 -43 -929
56 -148 168 -326 214 -338 10 -3 33 1 51 8 47 20 44 70 -8 138 -45 59 -109
184 -139 271 -51 151 -67 381 -37 529 30 143 108 327 176 412 16 20 29 40 29
44 0 19 167 170 245 222 163 108 328 165 508 175 l98 6 -7 -29 c-3 -16 -18
-58 -33 -93 l-26 -65 -95 -17 c-522 -92 -841 -630 -667 -1124 46 -133 158
-295 258 -375 142 -114 277 -173 447 -195 47 -6 55 -11 67 -39 36 -84 56 -146
50 -155 -15 -25 -226 -2 -345 39 -96 32 -165 67 -256 127 -87 57 -129 66 -157
35 -35 -38 -18 -76 56 -130 180 -133 448 -222 668 -222 91 0 100 -2 113 -22
13 -21 58 -135 100 -253 10 -27 36 -97 57 -155 45 -121 46 -130 20 -161 -15
-19 -31 -24 -95 -30 -96 -7 -114 -21 -96 -73 9 -28 19 -37 48 -46 144 -40 292
57 292 191 0 22 -22 95 -55 177 -30 77 -68 175 -84 218 -16 44 -56 149 -89
234 -148 388 -129 363 -299 397 -309 60 -532 266 -599 551 -25 106 -15 305 19
401 89 248 302 433 548 477 128 23 154 32 182 60 24 24 46 75 181 421 41 106
44 135 16 163 -26 26 -46 25 -74 -3z"/>
</g>
</svg>
